<?xml-stylesheet type="text/css" href="../styles/main.css" ?><svg class="white" xmlns="http://www.w3.org/2000/svg" viewBox="0 0 288 411"><path class="white" d="M155.8 104.5c-5.6 0-10.2-4.6-10.2-10.2 0-5.8 4.6-10.4 10.2-10.4 5.8 0 10.4 4.6 10.4 10.4 0 5.6-4.6 10.2-10.4 10.2M56 156.6c-5.6 0-10.2-4.6-10.2-10.2 0-5.8 4.6-10.5 10.2-10.5 5.8 0 10.4 4.6 10.4 10.5.1 5.5-4.6 10.2-10.4 10.2"/><path class="white" d="M56 168c-12 0-21.8-9.8-21.8-21.8S44 124.4 56 124.4s21.8 9.8 21.8 21.8C77.8 158.3 68 168 56 168m99.9-95.6c12 0 21.8 9.8 21.8 21.8s-9.8 21.8-21.8 21.8-21.8-9.8-21.8-21.8 9.8-21.8 21.8-21.8m-21.8 35.4c4.6 7.3 12.6 12.1 21.8 12.1 14.2 0 25.8-11.6 25.8-25.8 0-14.2-11.5-25.8-25.8-25.8-14.2 0-25.8 11.6-25.8 25.8 0 3.6.7 7 2.1 10.1l-54.3 28.3c-4.6-7.3-12.6-12.1-21.8-12.1-14.2 0-25.8 11.6-25.8 25.8 0 14.2 11.6 25.8 25.8 25.8 14.2 0 25.8-11.6 25.8-25.8 0-3.6-.7-7-2.1-10.1l54.3-28.3z"/><path class="white" d="M172.5 130.2c-9.6 4.4-20.4 4.9-30.3 1.2-1.5-.6-3.3.2-3.8 1.8-.6 1.5.2 3.3 1.8 3.8 5.1 1.9 10.5 2.8 15.8 2.8 6.5 0 13-1.4 19.1-4.2 11.1-5.1 19.5-14.2 23.7-25.7 8.7-23.6-3.4-49.9-27.1-58.6-23.6-8.7-49.9 3.5-58.6 27.1-.6 1.5.2 3.3 1.8 3.8 1.6.6 3.3-.2 3.8-1.8 7.6-20.5 30.4-31.1 51-23.5 20.5 7.6 31.1 30.4 23.5 50.9-3.7 10.1-11.1 18-20.7 22.4"/><path class="white" d="M182.8 21.1c-19.5-7.2-40.7-6.3-59.5 2.4-19 8.7-33.3 24.3-40.5 43.8-.6 1.7.2 3.7 2 4.3 1.8.6 3.7-.2 4.4-2 13.5-36.8 54.5-55.7 91.3-42.2s55.7 54.5 42.2 91.3-54.5 55.7-91.3 42.2c-1.8-.6-3.7.3-4.3 2-.6 1.8.2 3.7 2 4.3 8.8 3.3 17.9 4.8 26.8 4.8 31.7 0 61.6-19.5 73.2-51 14.7-40.2-6-85-46.3-99.9"/><g><path class="white" d="M120.3 204.4c-14.9 0-16 1.6-16 14.9V313H85.7V212.5c0-22.8 20.4-22.8 29.5-22.8h17.6s1.2 14.7-12.5 14.7M146.5 317.7v-128h18.6v111.7c0 16.5-18.6 16.3-18.6 16.3M46.7 317.7v-128h18.6v111.7c0 16.5-18.6 16.3-18.6 16.3M208 317.9c-19.3 0-26.7-6.5-26.7-6.5v-10.7c0-11.8 17.4-11.8 17.4-11.8v20.4s20.9 3.7 20.9-18.3c0-33-36.2-52-36.2-78.9 0-17.9 16-26.9 29-26.9 20.4 0 24.6 6.3 24.6 6.3v9.3c0 11.6-17.2 11.6-17.2 11.6v-18.1s-17.9-4.4-17.9 15.8c0 23.7 36.2 43.4 36.2 78.9.1 20.3-16.6 28.9-30.1 28.9M248.1 309.3h.9c.8 0 1.5 0 1.5-1 0-.8-.7-.9-1.3-.9H248v1.9zm-.9-2.6h2.3c1.4 0 2 .6 2 1.7s-.7 1.5-1.5 1.6l1.7 2.6h-1l-1.6-2.5h-1v2.5h-.9v-5.9zm1.9 7.2c2.3 0 4.1-1.9 4.1-4.3s-1.8-4.2-4.1-4.2c-2.4 0-4.1 1.9-4.1 4.2 0 2.4 1.8 4.3 4.1 4.3m0-9.3c2.7 0 5 2.2 5 5 0 2.9-2.3 5-5 5s-5-2.2-5-5c0-2.9 2.3-5 5-5"/></g><g><path class="white" d="M51.2 356.4v13h.1c.2-.3.5-.6.9-1 .4-.3.8-.6 1.3-.9.5-.3 1.1-.5 1.8-.7.7-.2 1.4-.3 2.3-.3 1.3 0 2.5.3 3.6.8s2.1 1.2 2.9 2.1c.8.9 1.4 1.9 1.9 3.1.4 1.2.7 2.5.7 3.8 0 1.4-.2 2.6-.6 3.8-.4 1.2-1 2.2-1.8 3.1-.8.9-1.7 1.6-2.9 2.1-1.1.5-2.4.8-3.8.8-1.3 0-2.5-.3-3.7-.8-1.1-.6-2-1.4-2.7-2.5H51v2.8h-4.4v-29.2h4.6zm10.6 19.8c0-.7-.1-1.4-.3-2.1-.2-.7-.5-1.3-1-1.9-.4-.6-1-1-1.7-1.4-.7-.3-1.5-.5-2.4-.5-.9 0-1.6.2-2.3.5-.7.4-1.2.8-1.7 1.4-.5.6-.8 1.2-1.1 1.9-.2.7-.4 1.4-.4 2.2 0 .7.1 1.4.4 2.1.2.7.6 1.3 1.1 1.9.5.6 1 1 1.7 1.4.7.3 1.4.5 2.3.5.9 0 1.7-.2 2.4-.5.7-.4 1.2-.8 1.7-1.4.4-.6.8-1.2 1-1.9.2-.8.3-1.5.3-2.2zM68.2 367h5.1l5.2 13.5h.1l4.6-13.5H88l-8.8 22.5c-.3.8-.7 1.6-1.1 2.3-.4.7-.9 1.2-1.4 1.7-.5.4-1.2.8-1.9 1-.7.2-1.6.3-2.6.3-.4 0-.8 0-1.2-.1-.4 0-.8-.1-1.2-.2l.4-4c.3.1.6.2.9.2.3 0 .6.1.8.1.5 0 .9-.1 1.2-.2.3-.1.6-.3.8-.5.2-.2.4-.5.6-.9.2-.4.4-.8.6-1.3l.9-2.4-7.8-18.5z"/><g><path class="white" d="M132.1 345.9l36.2-15.5 36.2 15.5H227v6.3h11.3v42.5h-140v-42.5h11.3v-6.3h22.5zm-19.6 2.9v6.3h-11.3v36.5h134.1v-36.5H224v-6.3h-20.2l-35.5-15.2-35.5 15.2h-20.3z"/><path class="white" d="M201.7 357.1v6.9h4.5l.9-6.9M223.9 364c0-1.1.9-1.9 2-1.9s2 .8 2 1.9c0 1.1-.9 2-2 2s-2-.8-2-2zm2 1.7c.9 0 1.6-.7 1.6-1.6 0-.9-.7-1.6-1.6-1.6-.9 0-1.6.7-1.6 1.6 0 .9.7 1.6 1.6 1.6zm-.5-.5h-.3V363h.9c.5 0 .8.2.8.6 0 .4-.2.6-.6.6l.6 1h-.4l-.6-1h-.4v1zm.5-1.3c.3 0 .5 0 .5-.4 0-.3-.3-.3-.5-.3h-.5v.7h.5zM120.7 380.5v-23.4h-6.4v29h16.3v-5.6M185.1 386.1h15.2v-5.6h-8.8v-3.6h8.8v-5.4h-8.8v-3.6h8.8v-5.7h-15.2v.1M151.6 383.1c0 1.7-1.4 3-3 3h-12.4c-1.7 0-3-1.4-3-3v-17.8c0-1.7 1.4-3 3-3h12.4c1.7 0 3 1.4 3 3v17.8zm-6.4-15.2h-5.6v12.6h5.6v-12.6zM175 362.2v18.3h-3.9v-18.3h-5.6v18.3h-3.9v-18.3h-6.4V383c0 1.7 1.4 3 3 3h7.6c1.3 0 2.5-.9 2.5-2.2 0 1.3 1.2 2.2 2.5 2.2h7.6c1.7 0 3-1.4 3-3v-20.8H175zM222.8 377.1c-.1-.1-.1-.2-.1-.2v-.1c-1-2-3.3-3.7-6.9-5.2h-.1c-.7-.3-2.9-1.1-3.2-2.5-.1-.4.1-1 .5-1.4.5-.5 1.2-.7 2.1-.7 1.5 0 3.2.6 4.1 1 1.9.8 3.5 1.5 3.5 1.5l.2.1v-5.2h-.1s-3.5-2.2-7.1-2.7c-.4 0-.8-.1-1.2-.1-3.3 0-5.7 1.2-7.3 3.5-1.3 1.9-1.5 4.9-.3 7.2 1.5 2.6 3.8 3.6 6.1 4.7.9.4 1.9.9 2.8 1.4 1 .6 1.6 1.6 1.3 2.4-.2.9-1.2 1.5-2.5 1.5h-.6c-2.4-.3-7.3-2.2-7.4-2.2l-.2-.1v5.7h.1s4.8 1.6 9 1.6c2.3 0 4.1-.5 5.2-1.4 0 0 2.6-2.1 2.7-5.6.1-1.2-.1-2.2-.6-3.2z"/></g></g></svg>