<svg id="Layer_1" xmlns="http://www.w3.org/2000/svg" viewBox="0 0 293.59 253.45"><style>.st0{fill:#FFFFFF;}</style><g id="by_Lowes"><g id="Lowes"><path class="st0" d="M171.56 204.72l36.12-15.47 36.12 15.47h22.52v6.31h11.28v42.42H137.74v-42.42h11.29v-6.31h22.53zm-19.55 2.97V214h-11.29v36.48h133.91V214h-11.28v-6.31H243.2l-35.48-15.21-35.47 15.21h-20.24z"/><path class="st0" d="M241.11 215.96v6.86l4.44.01.92-6.87zM263.24 222.86c0-1.12.91-1.94 1.98-1.94 1.06 0 1.97.82 1.97 1.94s-.9 1.95-1.97 1.95c-1.08 0-1.98-.83-1.98-1.95zm1.97 1.62c.88 0 1.57-.69 1.57-1.62 0-.92-.69-1.62-1.57-1.62-.89 0-1.58.69-1.58 1.62 0 .94.69 1.62 1.58 1.62zm-.41-.5h-.34v-2.24h.85c.53 0 .79.2.79.64 0 .4-.25.58-.58.62l.64.99h-.38l-.59-.97h-.39v.96zm.41-1.25c.29 0 .54-.02.54-.37 0-.27-.25-.33-.49-.33h-.46v.7h.41zM160.14 239.33v-23.37h-6.39v28.94h16.28v-5.57zM224.49 244.9h15.21v-5.58h-8.79v-3.63h8.79v-5.36h-8.79v-3.66h8.79v-5.59h-15.21v.03zM191.04 241.85c0 1.68-1.36 3.04-3.04 3.04h-12.35c-1.68 0-3.04-1.36-3.04-3.04v-17.73c0-1.68 1.36-3.04 3.04-3.04H188c1.68 0 3.04 1.36 3.04 3.04v17.73zm-6.4-15.18h-5.62v12.63h5.62v-12.63zM214.43 221.08v18.25h-3.86v-18.25h-5.62v18.25h-3.86v-18.25h-6.41v20.78c0 1.68 1.36 3.04 3.04 3.04h7.57c1.28 0 2.46-.88 2.46-2.16 0 1.28 1.19 2.16 2.46 2.16h7.57c1.68 0 3.04-1.36 3.04-3.04v-20.78h-6.39zM262.15 235.9l-.04-.08c-.02-.05-.05-.1-.07-.15l-.04-.08c-1.01-2.03-3.28-3.73-6.93-5.19l-.13-.05c-.72-.28-2.92-1.15-3.17-2.54-.07-.39.09-1.01.53-1.38.46-.47 1.17-.71 2.1-.71 1.49 0 3.18.61 4.06.97 1.85.76 3.47 1.45 3.48 1.46l.16.07v-5.2l-.05-.03c-.03-.02-3.53-2.23-7.06-2.73-.41-.03-.81-.05-1.19-.05-3.25 0-5.71 1.18-7.31 3.51-1.35 1.91-1.49 4.94-.35 7.2 1.47 2.55 3.83 3.62 6.11 4.65.94.42 1.91.87 2.82 1.41l.01.01c1.03.62 1.55 1.56 1.34 2.4-.23.87-1.22 1.46-2.48 1.46-.17 0-.35-.01-.52-.03l-.06-.01c-2.42-.34-7.34-2.17-7.39-2.19l-.16-.06v5.7l.08.03c.05.02 4.8 1.59 9.02 1.59 2.31 0 4.05-.46 5.17-1.38.02-.02 2.61-2.09 2.72-5.62.04-.99-.18-1.99-.65-2.98z"/></g><g id="by"><path class="st0" d="M89.67 215.31v12.86h.11c.23-.31.52-.62.88-.95.36-.33.78-.63 1.28-.92.5-.28 1.07-.51 1.73-.71.66-.19 1.41-.29 2.25-.29 1.3 0 2.5.25 3.59.74 1.09.5 2.03 1.18 2.82 2.04.79.87 1.4 1.88 1.83 3.05.43 1.17.65 2.43.65 3.78 0 1.35-.21 2.61-.63 3.8-.42 1.18-1.02 2.21-1.79 3.09-.78.88-1.72 1.58-2.83 2.1s-2.36.78-3.76.78c-1.3 0-2.51-.28-3.65-.84-1.13-.56-2.02-1.37-2.65-2.44h-.07v2.75h-4.35v-28.84h4.59zm10.5 19.61c0-.71-.11-1.42-.32-2.12-.22-.7-.54-1.33-.97-1.89-.43-.56-.98-1.01-1.64-1.35-.66-.34-1.44-.52-2.33-.52-.84 0-1.59.18-2.25.53-.66.36-1.23.81-1.7 1.37s-.83 1.2-1.07 1.91c-.24.71-.36 1.43-.36 2.14 0 .71.12 1.42.36 2.12.24.7.6 1.33 1.07 1.89.47.56 1.04 1.01 1.7 1.35.66.34 1.41.52 2.25.52.89 0 1.67-.18 2.33-.53.66-.36 1.21-.81 1.64-1.37.43-.56.76-1.2.97-1.91.21-.71.32-1.43.32-2.14zM106.51 225.84h5.08l5.12 13.32h.08l4.54-13.32h4.77l-8.67 22.24c-.33.84-.68 1.58-1.07 2.23-.38.65-.84 1.2-1.37 1.64-.54.44-1.16.78-1.89 1.01-.73.23-1.6.34-2.62.34-.38 0-.77-.02-1.17-.06-.39-.04-.79-.11-1.2-.21l.38-3.97c.3.1.6.17.9.21.29.04.57.06.82.06.49 0 .89-.06 1.22-.17.33-.12.61-.29.84-.53.23-.24.43-.54.61-.9s.37-.78.57-1.26l.92-2.33-7.86-18.3z"/></g></g><g id="Iris"><path class="st0" d="M159.01 57.2c-14.93 0-16.09 1.62-16.09 14.8v93.45h-18.68V65.29c0-22.66 20.54-22.66 29.64-22.66h17.74s1.17 14.57-12.61 14.57M185.39 170.08V42.63h18.66v111.25c0 16.43-18.66 16.2-18.66 16.2M85.11 170.08V42.63h18.67v111.25c0 16.43-18.67 16.2-18.67 16.2M247.23 170.31c-19.38 0-26.85-6.48-26.85-6.48v-10.64c0-11.79 17.51-11.79 17.51-11.79v20.35s21 3.7 21-18.27c0-32.84-36.41-51.8-36.41-78.64 0-17.81 16.1-26.83 29.17-26.83 20.54 0 24.75 6.25 24.75 6.25v9.24c0 11.57-17.28 11.57-17.28 11.57V47.02s-17.96-4.39-17.96 15.74c0 23.58 36.4 43.24 36.4 78.63 0 20.36-16.79 28.92-30.33 28.92M287.5 161.69h.95c.81 0 1.54-.04 1.54-.96 0-.77-.66-.9-1.28-.9h-1.21v1.86zm-.92-2.58h2.28c1.38 0 2.05.55 2.05 1.67 0 1.05-.67 1.49-1.54 1.58l1.68 2.58h-.98l-1.6-2.51h-.97v2.51h-.92v-5.83zm1.97 7.18c2.32 0 4.13-1.85 4.13-4.29 0-2.39-1.81-4.23-4.13-4.23-2.37 0-4.16 1.84-4.16 4.23 0 2.44 1.8 4.29 4.16 4.29m0-9.25c2.74 0 5.04 2.15 5.04 4.96 0 2.87-2.3 5.01-5.04 5.01-2.76 0-5.07-2.15-5.07-5.01 0-2.81 2.32-4.96 5.07-4.96"/></g><g id="works_with"><path class="st0" d="M104.04 16.74h-3.89L96.93 5.71h-.07l-3.22 11.03h-3.91L85.1.44h4.24l2.58 10.85h.07L94.89.44h4.1l2.92 10.85h.07L104.6.44h4.1l-4.66 16.3zM130.69 8.52c0 1.29-.22 2.47-.67 3.53-.45 1.07-1.06 1.98-1.85 2.74-.79.76-1.73 1.35-2.82 1.76-1.09.41-2.27.62-3.55.62-1.27 0-2.45-.21-3.53-.62-1.08-.41-2.02-1-2.81-1.76s-1.41-1.67-1.85-2.74c-.45-1.07-.67-2.25-.67-3.53 0-1.3.22-2.48.67-3.53.45-1.05 1.06-1.95 1.85-2.68.79-.74 1.73-1.3 2.81-1.7 1.08-.4 2.26-.6 3.53-.6s2.46.2 3.55.6c1.09.4 2.03.97 2.82 1.7.79.74 1.41 1.63 1.85 2.68.45 1.05.67 2.23.67 3.53zm-4.22 0c0-.71-.12-1.37-.35-1.98-.23-.61-.55-1.14-.96-1.58-.41-.44-.9-.78-1.47-1.04-.58-.25-1.21-.38-1.9-.38s-1.32.13-1.89.38c-.57.25-1.06.6-1.47 1.04-.41.44-.73.96-.96 1.58-.22.61-.33 1.27-.33 1.98 0 .74.11 1.42.35 2.04.23.62.55 1.16.96 1.6.41.45.89.79 1.46 1.05.57.25 1.2.38 1.89.38s1.32-.13 1.89-.38c.57-.25 1.06-.6 1.47-1.05.41-.45.74-.98.97-1.6.23-.62.34-1.3.34-2.04zM145.61 16.74l-3.54-6.47h-1.34v6.47h-3.85V.44h6.22c.78 0 1.55.08 2.29.24.74.16 1.41.43 2 .82.59.38 1.06.89 1.42 1.52.35.63.53 1.41.53 2.35 0 1.11-.3 2.03-.9 2.79-.6.75-1.43 1.29-2.49 1.61l4.26 6.98h-4.6zm-.16-11.31c0-.38-.08-.69-.24-.93-.16-.24-.37-.42-.62-.55-.25-.13-.54-.22-.86-.26-.32-.05-.62-.07-.91-.07h-2.11v3.8h1.87c.32 0 .66-.03.99-.08.34-.05.65-.15.93-.29.28-.14.51-.34.68-.6.18-.26.27-.6.27-1.02zM165.69 16.74l-6.06-7.51h-.05v7.51h-3.85V.44h3.85v6.63h.07l5.83-6.63h4.93l-7.02 7.51 7.44 8.8h-5.14zM184.33 4.67c-.34-.43-.78-.77-1.32-1.02-.55-.25-1.07-.38-1.58-.38-.26 0-.53.02-.79.07-.27.05-.51.13-.73.26-.22.13-.4.3-.54.51-.15.21-.22.47-.22.79 0 .28.06.51.17.69.11.18.28.35.51.48.22.14.49.26.79.38.31.11.65.23 1.04.36.55.18 1.13.39 1.73.61.6.22 1.14.52 1.64.89.49.37.9.83 1.22 1.37.32.55.48 1.22.48 2.04 0 .94-.17 1.75-.52 2.43-.35.68-.81 1.25-1.39 1.69-.58.45-1.25.78-2 .99-.75.21-1.53.32-2.33.32-1.17 0-2.29-.2-3.38-.61s-2-.99-2.72-1.74l2.58-2.63c.4.49.92.9 1.58 1.23.65.33 1.3.5 1.95.5.29 0 .58-.03.85-.09.28-.06.52-.16.72-.3.21-.14.37-.32.5-.55.12-.23.18-.51.18-.83 0-.31-.08-.57-.23-.78-.15-.21-.37-.41-.66-.59-.28-.18-.64-.34-1.06-.48-.42-.15-.9-.3-1.44-.47-.52-.17-1.03-.37-1.53-.6-.5-.23-.94-.53-1.34-.89-.39-.36-.71-.8-.94-1.31-.24-.51-.36-1.14-.36-1.88 0-.91.18-1.68.55-2.33.37-.64.85-1.17 1.45-1.59.6-.41 1.27-.72 2.03-.91.75-.19 1.51-.29 2.28-.29.92 0 1.86.17 2.82.51.96.34 1.8.84 2.52 1.5l-2.51 2.65zM224.66 16.74h-3.89l-3.22-11.03h-.07l-3.22 11.03h-3.91L205.72.44h4.24l2.58 10.85h.07l2.9-10.85h4.1l2.92 10.85h.07L225.23.44h4.1l-4.67 16.3zM234.58 16.74V.44h3.96v16.3h-3.96zM253.38 3.8v12.94h-3.94V3.8h-4.61V.44h13.15V3.8h-4.6zM273.67 16.74V9.92h-6.36v6.82h-3.94V.44h3.94v6.17h6.36V.44h3.94v16.3h-3.94z"/></g><path class="st0" d="M2.62 181.67L0 180.21l33.78-60.81L0 58.59l2.62-1.46 34.59 62.27z"/></svg>