<?xml version="1.0" encoding="utf-8"?>
<?xml-stylesheet type="text/css" href="../styles/main.css" ?>
<!-- Generator: Adobe Illustrator 19.0.1, SVG Export Plug-In . SVG Version: 6.00 Build 0)  -->
<svg version="1.1" class="white" xmlns="http://www.w3.org/2000/svg" xmlns:xlink="http://www.w3.org/1999/xlink" x="0px" y="0px"
	 viewBox="0 0 288 411" style="enable-background:new 0 0 288 411;" xml:space="preserve" width="190">
	<style>.white {fill:#ffffff;}</style> 
<g>
	<g>
		<path class="white" d="M155.8,104.5c-5.6,0-10.2-4.6-10.2-10.2c0-5.8,4.6-10.4,10.2-10.4c5.8,0,10.4,4.6,10.4,10.4
			C166.2,99.9,161.6,104.5,155.8,104.5"/>
		<path class="white" d="M56,156.6c-5.6,0-10.2-4.6-10.2-10.2c0-5.8,4.6-10.5,10.2-10.5c5.8,0,10.4,4.6,10.4,10.5
			C66.5,151.9,61.8,156.6,56,156.6"/>
		<path class="white" d="M56,168c-12,0-21.8-9.8-21.8-21.8c0-12,9.8-21.8,21.8-21.8c12,0,21.8,9.8,21.8,21.8C77.8,158.3,68,168,56,168
			 M155.9,72.4c12,0,21.8,9.8,21.8,21.8c0,12-9.8,21.8-21.8,21.8c-12,0-21.8-9.8-21.8-21.8C134.1,82.2,143.9,72.4,155.9,72.4
			 M134.1,107.8c4.6,7.3,12.6,12.1,21.8,12.1c14.2,0,25.8-11.6,25.8-25.8c0-14.2-11.5-25.8-25.8-25.8c-14.2,0-25.8,11.6-25.8,25.8
			c0,3.6,0.7,7,2.1,10.1l-54.3,28.3c-4.6-7.3-12.6-12.1-21.8-12.1c-14.2,0-25.8,11.6-25.8,25.8c0,14.2,11.6,25.8,25.8,25.8
			c14.2,0,25.8-11.6,25.8-25.8c0-3.6-0.7-7-2.1-10.1L134.1,107.8z"/>
		<path class="white" d="M172.5,130.2c-9.6,4.4-20.4,4.9-30.3,1.2c-1.5-0.6-3.3,0.2-3.8,1.8c-0.6,1.5,0.2,3.3,1.8,3.8
			c5.1,1.9,10.5,2.8,15.8,2.8c6.5,0,13-1.4,19.1-4.2c11.1-5.1,19.5-14.2,23.7-25.7c8.7-23.6-3.4-49.9-27.1-58.6
			c-23.6-8.7-49.9,3.5-58.6,27.1c-0.6,1.5,0.2,3.3,1.8,3.8c1.6,0.6,3.3-0.2,3.8-1.8c7.6-20.5,30.4-31.1,51-23.5
			c20.5,7.6,31.1,30.4,23.5,50.9C189.5,117.9,182.1,125.8,172.5,130.2"/>
		<path class="white" d="M182.8,21.1c-19.5-7.2-40.7-6.3-59.5,2.4C104.3,32.2,90,47.8,82.8,67.3c-0.6,1.7,0.2,3.7,2,4.3
			c1.8,0.6,3.7-0.2,4.4-2c13.5-36.8,54.5-55.7,91.3-42.2c36.8,13.5,55.7,54.5,42.2,91.3c-13.5,36.8-54.5,55.7-91.3,42.2
			c-1.8-0.6-3.7,0.3-4.3,2c-0.6,1.8,0.2,3.7,2,4.3c8.8,3.3,17.9,4.8,26.8,4.8c31.7,0,61.6-19.5,73.2-51
			C243.8,80.8,223.1,36,182.8,21.1"/>
	</g>
	<g>
		<path class="white" d="M120.3,204.4c-14.9,0-16,1.6-16,14.9V313H85.7V212.5c0-22.8,20.4-22.8,29.5-22.8h17.6
			C132.8,189.7,134,204.4,120.3,204.4"/>
		<path class="white" d="M146.5,317.7V189.7h18.6v111.7C165.1,317.9,146.5,317.7,146.5,317.7"/>
		<path class="white" d="M46.7,317.7V189.7h18.6v111.7C65.3,317.9,46.7,317.7,46.7,317.7"/>
		<path class="white" d="M208,317.9c-19.3,0-26.7-6.5-26.7-6.5v-10.7c0-11.8,17.4-11.8,17.4-11.8v20.4c0,0,20.9,3.7,20.9-18.3
			c0-33-36.2-52-36.2-78.9c0-17.9,16-26.9,29-26.9c20.4,0,24.6,6.3,24.6,6.3v9.3c0,11.6-17.2,11.6-17.2,11.6v-18.1
			c0,0-17.9-4.4-17.9,15.8c0,23.7,36.2,43.4,36.2,78.9C238.2,309.3,221.5,317.9,208,317.9"/>
		<path class="white" d="M248.1,309.3h0.9c0.8,0,1.5,0,1.5-1c0-0.8-0.7-0.9-1.3-0.9h-1.2V309.3z M247.2,306.7h2.3c1.4,0,2,0.6,2,1.7
			c0,1.1-0.7,1.5-1.5,1.6l1.7,2.6h-1l-1.6-2.5h-1v2.5h-0.9V306.7z M249.1,313.9c2.3,0,4.1-1.9,4.1-4.3c0-2.4-1.8-4.2-4.1-4.2
			c-2.4,0-4.1,1.9-4.1,4.2C245,312,246.8,313.9,249.1,313.9 M249.1,304.6c2.7,0,5,2.2,5,5c0,2.9-2.3,5-5,5c-2.7,0-5-2.2-5-5
			C244.1,306.7,246.4,304.6,249.1,304.6"/>
	</g>
</g>
<g>
	<g>
		<path class="white" d="M51.2,356.4v13h0.1c0.2-0.3,0.5-0.6,0.9-1c0.4-0.3,0.8-0.6,1.3-0.9c0.5-0.3,1.1-0.5,1.8-0.7
			c0.7-0.2,1.4-0.3,2.3-0.3c1.3,0,2.5,0.3,3.6,0.8c1.1,0.5,2.1,1.2,2.9,2.1c0.8,0.9,1.4,1.9,1.9,3.1c0.4,1.2,0.7,2.5,0.7,3.8
			c0,1.4-0.2,2.6-0.6,3.8c-0.4,1.2-1,2.2-1.8,3.1c-0.8,0.9-1.7,1.6-2.9,2.1c-1.1,0.5-2.4,0.8-3.8,0.8c-1.3,0-2.5-0.3-3.7-0.8
			c-1.1-0.6-2-1.4-2.7-2.5H51v2.8h-4.4v-29.2H51.2z M61.8,376.2c0-0.7-0.1-1.4-0.3-2.1c-0.2-0.7-0.5-1.3-1-1.9c-0.4-0.6-1-1-1.7-1.4
			c-0.7-0.3-1.5-0.5-2.4-0.5c-0.9,0-1.6,0.2-2.3,0.5c-0.7,0.4-1.2,0.8-1.7,1.4c-0.5,0.6-0.8,1.2-1.1,1.9c-0.2,0.7-0.4,1.4-0.4,2.2
			c0,0.7,0.1,1.4,0.4,2.1c0.2,0.7,0.6,1.3,1.1,1.9c0.5,0.6,1,1,1.7,1.4c0.7,0.3,1.4,0.5,2.3,0.5c0.9,0,1.7-0.2,2.4-0.5
			c0.7-0.4,1.2-0.8,1.7-1.4c0.4-0.6,0.8-1.2,1-1.9C61.7,377.6,61.8,376.9,61.8,376.2z"/>
		<path class="white" d="M68.2,367h5.1l5.2,13.5h0.1l4.6-13.5H88l-8.8,22.5c-0.3,0.8-0.7,1.6-1.1,2.3c-0.4,0.7-0.9,1.2-1.4,1.7
			c-0.5,0.4-1.2,0.8-1.9,1c-0.7,0.2-1.6,0.3-2.6,0.3c-0.4,0-0.8,0-1.2-0.1c-0.4,0-0.8-0.1-1.2-0.2l0.4-4c0.3,0.1,0.6,0.2,0.9,0.2
			c0.3,0,0.6,0.1,0.8,0.1c0.5,0,0.9-0.1,1.2-0.2c0.3-0.1,0.6-0.3,0.8-0.5c0.2-0.2,0.4-0.5,0.6-0.9c0.2-0.4,0.4-0.8,0.6-1.3l0.9-2.4
			L68.2,367z"/>
	</g>
	<g>
		<g>
			<path class="white" d="M132.1,345.9l36.2-15.5l36.2,15.5H227v6.3h11.3v42.5h-140v-42.5h11.3v-6.3H132.1z M112.5,348.8v6.3h-11.3
				v36.5h134.1v-36.5H224v-6.3h-20.2l-35.5-15.2l-35.5,15.2H112.5z"/>
		</g>
		<polygon class="white" points="201.7,357.1 201.7,364 206.2,364 207.1,357.1 		"/>
		<path class="white" d="M223.9,364c0-1.1,0.9-1.9,2-1.9c1.1,0,2,0.8,2,1.9c0,1.1-0.9,2-2,2C224.8,366,223.9,365.2,223.9,364
			L223.9,364z M225.9,365.7c0.9,0,1.6-0.7,1.6-1.6c0-0.9-0.7-1.6-1.6-1.6c-0.9,0-1.6,0.7-1.6,1.6C224.3,365,225,365.7,225.9,365.7
			L225.9,365.7z M225.4,365.2h-0.3v-2.2h0.9c0.5,0,0.8,0.2,0.8,0.6c0,0.4-0.2,0.6-0.6,0.6l0.6,1h-0.4l-0.6-1h-0.4V365.2L225.4,365.2
			z M225.9,363.9c0.3,0,0.5,0,0.5-0.4c0-0.3-0.3-0.3-0.5-0.3h-0.5v0.7H225.9L225.9,363.9z"/>
		<polygon class="white" points="120.7,380.5 120.7,357.1 114.3,357.1 114.3,386.1 130.6,386.1 130.6,380.5 		"/>
		<polygon class="white" points="185.1,386.1 200.3,386.1 200.3,380.5 191.5,380.5 191.5,376.9 200.3,376.9 200.3,371.5 191.5,371.5 
			191.5,367.9 200.3,367.9 200.3,362.2 185.1,362.2 185.1,362.3 		"/>
		<path class="white" d="M151.6,383.1c0,1.7-1.4,3-3,3h-12.4c-1.7,0-3-1.4-3-3v-17.8c0-1.7,1.4-3,3-3h12.4c1.7,0,3,1.4,3,3V383.1z
			 M145.2,367.9h-5.6v12.6h5.6V367.9z"/>
		<g>
			<path class="white" d="M175,362.2v18.3h-3.9v-18.3h-5.6v18.3h-3.9v-18.3h-6.4v20.8c0,1.7,1.4,3,3,3h7.6c1.3,0,2.5-0.9,2.5-2.2
				c0,1.3,1.2,2.2,2.5,2.2h7.6c1.7,0,3-1.4,3-3v-20.8H175z"/>
		</g>
		<path class="white" d="M222.8,377.1L222.8,377.1L222.8,377.1c-0.1-0.1-0.1-0.2-0.1-0.2l0-0.1c-1-2-3.3-3.7-6.9-5.2l-0.1,0
			c-0.7-0.3-2.9-1.1-3.2-2.5c-0.1-0.4,0.1-1,0.5-1.4c0.5-0.5,1.2-0.7,2.1-0.7c1.5,0,3.2,0.6,4.1,1c1.9,0.8,3.5,1.5,3.5,1.5l0.2,0.1
			v-5.2l-0.1,0c0,0-3.5-2.2-7.1-2.7c-0.4,0-0.8-0.1-1.2-0.1c-3.3,0-5.7,1.2-7.3,3.5c-1.3,1.9-1.5,4.9-0.3,7.2
			c1.5,2.6,3.8,3.6,6.1,4.7c0.9,0.4,1.9,0.9,2.8,1.4l0,0c1,0.6,1.6,1.6,1.3,2.4c-0.2,0.9-1.2,1.5-2.5,1.5c-0.2,0-0.3,0-0.5,0l-0.1,0
			c-2.4-0.3-7.3-2.2-7.4-2.2l-0.2-0.1v5.7l0.1,0c0,0,4.8,1.6,9,1.6l0,0c2.3,0,4.1-0.5,5.2-1.4c0,0,2.6-2.1,2.7-5.6
			C223.5,379.1,223.3,378.1,222.8,377.1z"/>
	</g>
</g>
</svg>
