<?xml version="1.0" encoding="utf-8"?>
<!-- Generator: Adobe Illustrator 19.0.1, SVG Export Plug-In . SVG Version: 6.00 Build 0)  -->
<svg version="1.1" id="Layer_1" xmlns="http://www.w3.org/2000/svg" xmlns:xlink="http://www.w3.org/1999/xlink" x="0px" y="0px"
	 viewBox="0 0 293.59 253.45" style="enable-background:new 0 0 293.59 253.45;" xml:space="preserve">
<style type="text/css">
	.st0{fill:#FFFFFF;}
</style>
<g id="by_Lowes">
	<g id="Lowes">
		<g>
			<path class="st0" d="M171.56,204.72l36.12-15.47l36.12,15.47h22.52v6.31h11.28v42.42H137.74v-42.42h11.29v-6.31H171.56z
				 M152.01,207.69V214h-11.29v36.48h133.91V214h-11.28v-6.31h-20.15l-35.48-15.21l-35.47,15.21H152.01z"/>
		</g>
		<polygon class="st0" points="241.11,215.96 241.11,222.82 245.55,222.83 246.47,215.96 		"/>
		<path class="st0" d="M263.24,222.86c0-1.12,0.91-1.94,1.98-1.94c1.06,0,1.97,0.82,1.97,1.94c0,1.12-0.9,1.95-1.97,1.95
			C264.14,224.81,263.24,223.98,263.24,222.86L263.24,222.86z M265.21,224.48c0.88,0,1.57-0.69,1.57-1.62
			c0-0.92-0.69-1.62-1.57-1.62c-0.89,0-1.58,0.69-1.58,1.62C263.63,223.8,264.32,224.48,265.21,224.48L265.21,224.48z M264.8,223.98
			h-0.34v-2.24h0.85c0.53,0,0.79,0.2,0.79,0.64c0,0.4-0.25,0.58-0.58,0.62l0.64,0.99h-0.38l-0.59-0.97h-0.39V223.98L264.8,223.98z
			 M265.21,222.73c0.29,0,0.54-0.02,0.54-0.37c0-0.27-0.25-0.33-0.49-0.33h-0.46v0.7H265.21L265.21,222.73z"/>
		<polygon class="st0" points="160.14,239.33 160.14,215.96 153.75,215.96 153.75,244.9 170.03,244.9 170.03,239.33 		"/>
		<polygon class="st0" points="224.49,244.9 239.7,244.9 239.7,239.32 230.91,239.32 230.91,235.69 239.7,235.69 239.7,230.33 
			230.91,230.33 230.91,226.67 239.7,226.67 239.7,221.08 224.49,221.08 224.49,221.11 		"/>
		<path class="st0" d="M191.04,241.85c0,1.68-1.36,3.04-3.04,3.04h-12.35c-1.68,0-3.04-1.36-3.04-3.04v-17.73
			c0-1.68,1.36-3.04,3.04-3.04H188c1.68,0,3.04,1.36,3.04,3.04V241.85z M184.64,226.67h-5.62v12.63h5.62V226.67z"/>
		<g>
			<path class="st0" d="M214.43,221.08v18.25h-3.86v-18.25h-5.62v18.25h-3.86v-18.25h-6.41v20.78c0,1.68,1.36,3.04,3.04,3.04h7.57
				c1.28,0,2.46-0.88,2.46-2.16c0,1.28,1.19,2.16,2.46,2.16h7.57c1.68,0,3.04-1.36,3.04-3.04v-20.78H214.43z"/>
		</g>
		<path class="st0" d="M262.15,235.9L262.15,235.9l-0.04-0.08c-0.02-0.05-0.05-0.1-0.07-0.15l-0.04-0.08
			c-1.01-2.03-3.28-3.73-6.93-5.19l-0.13-0.05c-0.72-0.28-2.92-1.15-3.17-2.54c-0.07-0.39,0.09-1.01,0.53-1.38
			c0.46-0.47,1.17-0.71,2.1-0.71c1.49,0,3.18,0.61,4.06,0.97c1.85,0.76,3.47,1.45,3.48,1.46l0.16,0.07v-5.2l-0.05-0.03
			c-0.03-0.02-3.53-2.23-7.06-2.73c-0.41-0.03-0.81-0.05-1.19-0.05c-3.25,0-5.71,1.18-7.31,3.51c-1.35,1.91-1.49,4.94-0.35,7.2
			c1.47,2.55,3.83,3.62,6.11,4.65c0.94,0.42,1.91,0.87,2.82,1.41l0.01,0.01c1.03,0.62,1.55,1.56,1.34,2.4
			c-0.23,0.87-1.22,1.46-2.48,1.46c-0.17,0-0.35-0.01-0.52-0.03l-0.06-0.01c-2.42-0.34-7.34-2.17-7.39-2.19l-0.16-0.06v5.7
			l0.08,0.03c0.05,0.02,4.8,1.59,9.02,1.59l0,0c2.31,0,4.05-0.46,5.17-1.38c0.02-0.02,2.61-2.09,2.72-5.62
			C262.84,237.89,262.62,236.89,262.15,235.9z"/>
	</g>
	<g id="by">
		<path class="st0" d="M89.67,215.31v12.86h0.11c0.23-0.31,0.52-0.62,0.88-0.95c0.36-0.33,0.78-0.63,1.28-0.92
			c0.5-0.28,1.07-0.51,1.73-0.71c0.66-0.19,1.41-0.29,2.25-0.29c1.3,0,2.5,0.25,3.59,0.74c1.09,0.5,2.03,1.18,2.82,2.04
			c0.79,0.87,1.4,1.88,1.83,3.05c0.43,1.17,0.65,2.43,0.65,3.78c0,1.35-0.21,2.61-0.63,3.8c-0.42,1.18-1.02,2.21-1.79,3.09
			c-0.78,0.88-1.72,1.58-2.83,2.1c-1.11,0.52-2.36,0.78-3.76,0.78c-1.3,0-2.51-0.28-3.65-0.84c-1.13-0.56-2.02-1.37-2.65-2.44h-0.07
			v2.75h-4.35v-28.84H89.67z M100.17,234.92c0-0.71-0.11-1.42-0.32-2.12c-0.22-0.7-0.54-1.33-0.97-1.89
			c-0.43-0.56-0.98-1.01-1.64-1.35c-0.66-0.34-1.44-0.52-2.33-0.52c-0.84,0-1.59,0.18-2.25,0.53c-0.66,0.36-1.23,0.81-1.7,1.37
			c-0.47,0.56-0.83,1.2-1.07,1.91c-0.24,0.71-0.36,1.43-0.36,2.14c0,0.71,0.12,1.42,0.36,2.12c0.24,0.7,0.6,1.33,1.07,1.89
			c0.47,0.56,1.04,1.01,1.7,1.35c0.66,0.34,1.41,0.52,2.25,0.52c0.89,0,1.67-0.18,2.33-0.53c0.66-0.36,1.21-0.81,1.64-1.37
			c0.43-0.56,0.76-1.2,0.97-1.91C100.06,236.35,100.17,235.63,100.17,234.92z"/>
		<path class="st0" d="M106.51,225.84h5.08l5.12,13.32h0.08l4.54-13.32h4.77l-8.67,22.24c-0.33,0.84-0.68,1.58-1.07,2.23
			c-0.38,0.65-0.84,1.2-1.37,1.64c-0.54,0.44-1.16,0.78-1.89,1.01c-0.73,0.23-1.6,0.34-2.62,0.34c-0.38,0-0.77-0.02-1.17-0.06
			c-0.39-0.04-0.79-0.11-1.2-0.21l0.38-3.97c0.3,0.1,0.6,0.17,0.9,0.21c0.29,0.04,0.57,0.06,0.82,0.06c0.49,0,0.89-0.06,1.22-0.17
			c0.33-0.12,0.61-0.29,0.84-0.53c0.23-0.24,0.43-0.54,0.61-0.9c0.18-0.36,0.37-0.78,0.57-1.26l0.92-2.33L106.51,225.84z"/>
	</g>
</g>
<g id="Iris">
	<g>
		<path class="st0" d="M159.01,57.2c-14.93,0-16.09,1.62-16.09,14.8v93.45h-18.68V65.29c0-22.66,20.54-22.66,29.64-22.66h17.74
			C171.62,42.63,172.79,57.2,159.01,57.2"/>
		<path class="st0" d="M185.39,170.08V42.63h18.66v111.25C204.05,170.31,185.39,170.08,185.39,170.08"/>
		<path class="st0" d="M85.11,170.08V42.63h18.67v111.25C103.78,170.31,85.11,170.08,85.11,170.08"/>
		<path class="st0" d="M247.23,170.31c-19.38,0-26.85-6.48-26.85-6.48v-10.64c0-11.79,17.51-11.79,17.51-11.79v20.35
			c0,0,21,3.7,21-18.27c0-32.84-36.41-51.8-36.41-78.64c0-17.81,16.1-26.83,29.17-26.83c20.54,0,24.75,6.25,24.75,6.25v9.24
			c0,11.57-17.28,11.57-17.28,11.57V47.02c0,0-17.96-4.39-17.96,15.74c0,23.58,36.4,43.24,36.4,78.63
			C277.56,161.75,260.77,170.31,247.23,170.31"/>
		<path class="st0" d="M287.5,161.69h0.95c0.81,0,1.54-0.04,1.54-0.96c0-0.77-0.66-0.9-1.28-0.9h-1.21V161.69z M286.58,159.11h2.28
			c1.38,0,2.05,0.55,2.05,1.67c0,1.05-0.67,1.49-1.54,1.58l1.68,2.58h-0.98l-1.6-2.51h-0.97v2.51h-0.92V159.11z M288.55,166.29
			c2.32,0,4.13-1.85,4.13-4.29c0-2.39-1.81-4.23-4.13-4.23c-2.37,0-4.16,1.84-4.16,4.23C284.39,164.44,286.19,166.29,288.55,166.29
			 M288.55,157.04c2.74,0,5.04,2.15,5.04,4.96c0,2.87-2.3,5.01-5.04,5.01c-2.76,0-5.07-2.15-5.07-5.01
			C283.48,159.19,285.8,157.04,288.55,157.04"/>
	</g>
</g>
<g id="works_with">
	<path class="st0" d="M104.04,16.74h-3.89L96.93,5.71h-0.07l-3.22,11.03h-3.91l-4.63-16.3h4.24l2.58,10.85h0.07l2.9-10.85h4.1
		l2.92,10.85h0.07l2.62-10.85h4.1L104.04,16.74z"/>
	<path class="st0" d="M130.69,8.52c0,1.29-0.22,2.47-0.67,3.53c-0.45,1.07-1.06,1.98-1.85,2.74c-0.79,0.76-1.73,1.35-2.82,1.76
		c-1.09,0.41-2.27,0.62-3.55,0.62c-1.27,0-2.45-0.21-3.53-0.62c-1.08-0.41-2.02-1-2.81-1.76c-0.79-0.76-1.41-1.67-1.85-2.74
		c-0.45-1.07-0.67-2.25-0.67-3.53c0-1.3,0.22-2.48,0.67-3.53c0.45-1.05,1.06-1.95,1.85-2.68c0.79-0.74,1.73-1.3,2.81-1.7
		c1.08-0.4,2.26-0.6,3.53-0.6c1.27,0,2.46,0.2,3.55,0.6c1.09,0.4,2.03,0.97,2.82,1.7c0.79,0.74,1.41,1.63,1.85,2.68
		C130.47,6.04,130.69,7.22,130.69,8.52z M126.47,8.52c0-0.71-0.12-1.37-0.35-1.98c-0.23-0.61-0.55-1.14-0.96-1.58
		c-0.41-0.44-0.9-0.78-1.47-1.04c-0.58-0.25-1.21-0.38-1.9-0.38c-0.69,0-1.32,0.13-1.89,0.38c-0.57,0.25-1.06,0.6-1.47,1.04
		c-0.41,0.44-0.73,0.96-0.96,1.58c-0.22,0.61-0.33,1.27-0.33,1.98c0,0.74,0.11,1.42,0.35,2.04c0.23,0.62,0.55,1.16,0.96,1.6
		c0.41,0.45,0.89,0.79,1.46,1.05c0.57,0.25,1.2,0.38,1.89,0.38c0.69,0,1.32-0.13,1.89-0.38c0.57-0.25,1.06-0.6,1.47-1.05
		c0.41-0.45,0.74-0.98,0.97-1.6C126.36,9.94,126.47,9.26,126.47,8.52z"/>
	<path class="st0" d="M145.61,16.74l-3.54-6.47h-1.34v6.47h-3.85V0.44h6.22c0.78,0,1.55,0.08,2.29,0.24c0.74,0.16,1.41,0.43,2,0.82
		c0.59,0.38,1.06,0.89,1.42,1.52c0.35,0.63,0.53,1.41,0.53,2.35c0,1.11-0.3,2.03-0.9,2.79c-0.6,0.75-1.43,1.29-2.49,1.61l4.26,6.98
		H145.61z M145.45,5.43c0-0.38-0.08-0.69-0.24-0.93c-0.16-0.24-0.37-0.42-0.62-0.55c-0.25-0.13-0.54-0.22-0.86-0.26
		c-0.32-0.05-0.62-0.07-0.91-0.07h-2.11v3.8h1.87c0.32,0,0.66-0.03,0.99-0.08c0.34-0.05,0.65-0.15,0.93-0.29
		c0.28-0.14,0.51-0.34,0.68-0.6C145.36,6.19,145.45,5.85,145.45,5.43z"/>
	<path class="st0" d="M165.69,16.74l-6.06-7.51h-0.05v7.51h-3.85V0.44h3.85v6.63h0.07l5.83-6.63h4.93l-7.02,7.51l7.44,8.8H165.69z"
		/>
	<path class="st0" d="M184.33,4.67c-0.34-0.43-0.78-0.77-1.32-1.02c-0.55-0.25-1.07-0.38-1.58-0.38c-0.26,0-0.53,0.02-0.79,0.07
		c-0.27,0.05-0.51,0.13-0.73,0.26c-0.22,0.13-0.4,0.3-0.54,0.51c-0.15,0.21-0.22,0.47-0.22,0.79c0,0.28,0.06,0.51,0.17,0.69
		c0.11,0.18,0.28,0.35,0.51,0.48c0.22,0.14,0.49,0.26,0.79,0.38c0.31,0.11,0.65,0.23,1.04,0.36c0.55,0.18,1.13,0.39,1.73,0.61
		c0.6,0.22,1.14,0.52,1.64,0.89c0.49,0.37,0.9,0.83,1.22,1.37c0.32,0.55,0.48,1.22,0.48,2.04c0,0.94-0.17,1.75-0.52,2.43
		c-0.35,0.68-0.81,1.25-1.39,1.69c-0.58,0.45-1.25,0.78-2,0.99c-0.75,0.21-1.53,0.32-2.33,0.32c-1.17,0-2.29-0.2-3.38-0.61
		s-2-0.99-2.72-1.74l2.58-2.63c0.4,0.49,0.92,0.9,1.58,1.23c0.65,0.33,1.3,0.5,1.95,0.5c0.29,0,0.58-0.03,0.85-0.09
		c0.28-0.06,0.52-0.16,0.72-0.3c0.21-0.14,0.37-0.32,0.5-0.55c0.12-0.23,0.18-0.51,0.18-0.83c0-0.31-0.08-0.57-0.23-0.78
		c-0.15-0.21-0.37-0.41-0.66-0.59c-0.28-0.18-0.64-0.34-1.06-0.48c-0.42-0.15-0.9-0.3-1.44-0.47c-0.52-0.17-1.03-0.37-1.53-0.6
		c-0.5-0.23-0.94-0.53-1.34-0.89c-0.39-0.36-0.71-0.8-0.94-1.31c-0.24-0.51-0.36-1.14-0.36-1.88c0-0.91,0.18-1.68,0.55-2.33
		c0.37-0.64,0.85-1.17,1.45-1.59c0.6-0.41,1.27-0.72,2.03-0.91c0.75-0.19,1.51-0.29,2.28-0.29c0.92,0,1.86,0.17,2.82,0.51
		c0.96,0.34,1.8,0.84,2.52,1.5L184.33,4.67z"/>
	<path class="st0" d="M224.66,16.74h-3.89l-3.22-11.03h-0.07l-3.22,11.03h-3.91l-4.63-16.3h4.24l2.58,10.85h0.07l2.9-10.85h4.1
		l2.92,10.85h0.07l2.63-10.85h4.1L224.66,16.74z"/>
	<path class="st0" d="M234.58,16.74V0.44h3.96v16.3H234.58z"/>
	<path class="st0" d="M253.38,3.8v12.94h-3.94V3.8h-4.61V0.44h13.15V3.8H253.38z"/>
	<path class="st0" d="M273.67,16.74V9.92h-6.36v6.82h-3.94V0.44h3.94v6.17h6.36V0.44h3.94v16.3H273.67z"/>
</g>
<polygon class="st0" points="2.62,181.67 0,180.21 33.78,119.4 0,58.59 2.62,57.13 37.21,119.4 "/>
</svg>
