<?xml version="1.0" encoding="utf-8"?>
<!-- Generator: Adobe Illustrator 19.0.1, SVG Export Plug-In . SVG Version: 6.00 Build 0)  -->
<svg version="1.1" id="All" xmlns="http://www.w3.org/2000/svg" xmlns:xlink="http://www.w3.org/1999/xlink" x="0px" y="0px"
	 viewBox="0 0 90 90" style="enable-background:new 0 0 90 90;" xml:space="preserve">
<style type="text/css">
	.st0{fill:#FFFFFF;}
	.st1{fill:none;stroke:#FFFFFF;stroke-width:2;stroke-miterlimit:10;}
</style>
<g>
	<g>
		<path class="st0" d="M45.01,2C68.72,2,88,21.29,88,45.01c0,23.71-19.28,43-42.99,43C21.3,88,2,68.71,2,45.01
			C2,21.29,21.3,2,45.01,2 M45.01,0C20.15,0,0,20.15,0,45.01C0,69.85,20.15,90,45.01,90C69.84,90,90,69.85,90,45.01
			C90,20.15,69.84,0,45.01,0L45.01,0z"/>
	</g>
</g>
<path class="st1" d="M59.03,31.87H27.89c-1.32,0-2.39,1.07-2.39,2.39v21.48c0,1.32,1.07,2.39,2.39,2.39h31.15
	c1.32,0,2.39-1.07,2.39-2.39v-7.51L74.5,54.6V35.4l-13.08,6.37v-7.51C61.42,32.94,60.35,31.87,59.03,31.87"/>
</svg>
